# xmcd CD database file generated by OrangeCD 6.4
#
# Track frame offsets:
#	150
#	13086
#	30381
#	43032
#	60725
#
# Disc length: 1056 seconds
#
# Revision: 0
# Processed by: cddbd v1.5.2PL0 Copyright (c) Steve Scherf et al.
# Submitted via: OrangeCD 6.4
#
DISCID=37041e05
DTITLE=Karen Dahlstrom - Gem State
DYEAR=2011
DGENRE=
TTITLE0=The Miner's Bride
TTITLE1=Galena
TTITLE2=Starling
TTITLE3=Streets of Pocatello
TTITLE4=One More Time
EXTD=
EXTT0=
EXTT1=
EXTT2=
EXTT3=
EXTT4=
PLAYORDER=
